SplineFontDB: 3.2
FontName: ycaxen-medium
FullName: ycaxen Medium
FamilyName: ycaxen
Weight: Medium
Copyright: Copyright (c) 2023, skarsna.meloviliju
UComments: "2023-11-13: Created with FontForge (http://fontforge.org)+AAoA-2023-11-17: Complete minimum characters "
Version: 001.000
ItalicAngle: 0
UnderlinePosition: -102
UnderlineWidth: 51
Ascent: 819
Descent: 205
InvalidEm: 0
LayerCount: 2
Layer: 0 0 "+gMyXYgAA" 1
Layer: 1 0 "+Uk2XYgAA" 0
XUID: [1021 765 1012425290 27352]
StyleMap: 0x0000
FSType: 0
OS2Version: 0
OS2_WeightWidthSlopeOnly: 0
OS2_UseTypoMetrics: 1
CreationTime: 1699859195
ModificationTime: 1710169052
OS2TypoAscent: 0
OS2TypoAOffset: 1
OS2TypoDescent: 0
OS2TypoDOffset: 1
OS2TypoLinegap: 92
OS2WinAscent: 0
OS2WinAOffset: 1
OS2WinDescent: 0
OS2WinDOffset: 1
HheadAscent: 0
HheadAOffset: 1
HheadDescent: 0
HheadDOffset: 1
MarkAttachClasses: 1
DEI: 91125
LangName: 1033
Encoding: ISO8859-1
UnicodeInterp: none
NameList: AGL For New Fonts
DisplaySize: -48
AntiAlias: 1
FitToEm: 0
WinInfo: 0 38 13
BeginPrivate: 0
EndPrivate
BeginChars: 256 38

StartChar: exclam
Encoding: 33 33 1
Width: 499
Flags: W
HStem: 680.277 20G<337.58 368.904>
VStem: 100.264 62.9111<164.313 604.755> 337.58 61.4199<-10.4746 661.062>
LayerCount: 2
Fore
SplineSet
163.174804688 604.754882812 m 1
 163.174804688 164.313476562 l 1
 100.263671875 164.313476562 l 1
 100.263671875 604.754882812 l 1
 163.174804688 604.754882812 l 1
337.580078125 700.27734375 m 1
 399 661.061523438 l 1
 399 -120.0078125 l 1
 212.000976562 7.3203125 l 1
 146.092773438 102.3984375 l 1
 337.580078125 -10.474609375 l 1
 337.580078125 700.27734375 l 1
EndSplineSet
Validated: 1
EndChar

StartChar: comma
Encoding: 44 44 2
Width: 210
Flags: W
HStem: -190.032 224.587
VStem: 29.793 150.207
LayerCount: 2
Fore
SplineSet
180 34.5546875 m 1
 78.681640625 -161.578125 l 1
 29.79296875 -190.032226562 l 1
 99.9580078125 12.376953125 l 1
 180 34.5546875 l 1
EndSplineSet
Validated: 1
EndChar

StartChar: period
Encoding: 46 46 3
Width: 141
Flags: W
HStem: -0.200195 80.6172<34.7926 106.59>
VStem: 30.3828 80.6172<4.20956 76.0072>
LayerCount: 2
Fore
SplineSet
30.3828125 40.1083984375 m 0
 30.3828125 62.3701171875 48.4296875 80.4169921875 70.69140625 80.4169921875 c 0
 92.953125 80.4169921875 111 62.3701171875 111 40.1083984375 c 0
 111 17.8466796875 92.953125 -0.2001953125 70.69140625 -0.2001953125 c 0
 48.4296875 -0.2001953125 30.3828125 17.8466796875 30.3828125 40.1083984375 c 0
EndSplineSet
Validated: 1
EndChar

StartChar: quotedbl
Encoding: 34 34 4
Width: 297
Flags: W
HStem: 424.368 202.059
VStem: 30.2969 256.703
LayerCount: 2
Fore
SplineSet
176.408203125 626.426757812 m 1
 75.08984375 454.870117188 l 1
 30.296875 424.368164062 l 1
 100.461914062 626.77734375 l 1
 176.408203125 626.426757812 l 1
287 626.426757812 m 1
 185.681640625 454.870117188 l 1
 140.888671875 424.368164062 l 1
 211.053710938 626.77734375 l 1
 287 626.426757812 l 1
EndSplineSet
Validated: 1
EndChar

StartChar: hyphen
Encoding: 45 45 5
Width: 367
Flags: W
HStem: 249.394 60.9414<29.7988 337>
VStem: 29.7988 307.201<249.394 310.335>
LayerCount: 2
Fore
SplineSet
29.798828125 249.393554688 m 1
 29.798828125 310.334960938 l 1
 337 310.334960938 l 1
 337 249.393554688 l 1
 29.798828125 249.393554688 l 1
EndSplineSet
Validated: 1
EndChar

StartChar: question
Encoding: 63 63 6
Width: 613
Flags: W
HStem: 76.5703 61.2832<250.327 435.431> 466.651 51.4229<70.3135 379.764>
LayerCount: 2
Fore
SplineSet
530.27734375 362.264648438 m 1
 557.1640625 281.970703125 577.3125 191.326171875 563.551757812 132.942382812 c 0
 533.541992188 70.6494140625 501.591796875 76.5703125 208.845703125 76.5703125 c 0
 71.6787109375 76.5703125 379.763671875 466.651367188 379.763671875 466.651367188 c 1
 70.3134765625 464.603515625 l 1
 44.5029296875 518.07421875 l 1
 388.296875 518.07421875 l 2
 440.654296875 516.654296875 465.71484375 488.111328125 450.897460938 463.891601562 c 0
 435.826171875 439.258789062 223.997070312 193.065429688 252.321289062 137.853515625 c 1
 432.840820312 137.853515625 l 2
 543.073242188 135.903320312 521.067382812 233.631835938 530.27734375 362.264648438 c 1
EndSplineSet
Validated: 33
EndChar

StartChar: A
Encoding: 65 65 7
Width: 561
Flags: W
HStem: 0.698242 51.9033<133.267 346.951> 308.511 51.9033<133.267 343.971> 495.946 56<133.267 438.942>
VStem: 62.8037 70.4629<52.6016 308.511 360.414 495.946>
LayerCount: 2
Fore
SplineSet
60.068359375 551.946289062 m 1
 438.942382812 551.946289062 l 1
 438.942382812 495.946289062 l 1
 133.266601562 495.946289062 l 1
 133.266601562 360.4140625 l 1
 243.81640625 360.4140625 l 2
 596.541015625 360.4140625 589.330078125 0.6982421875 246.551757812 0.6982421875 c 2
 62.8037109375 0.6982421875 l 1
 60.068359375 551.946289062 l 1
133.266601562 308.510742188 m 1
 133.266601562 52.6015625 l 1
 226.872070312 52.6015625 l 2
 511.4765625 52.6015625 502.6484375 308.508789062 224.572265625 308.509765625 c 2
 133.266601562 308.510742188 l 1
EndSplineSet
Validated: 33
EndChar

StartChar: B
Encoding: 66 66 8
Width: 567
Flags: W
HStem: -14.5361 57.8877<206.958 363.75> 517.576 53.5957<215.122 251.3 317.307 363.5>
VStem: 44.9297 80.5205<165.002 393.655> 251.3 66.0068<567.273 751.661> 445.386 78.4727<161.412 395.342>
LayerCount: 2
Fore
SplineSet
251.119140625 751.661132812 m 1
 317.306640625 751.661132812 l 1
 317.306640625 571.154296875 l 1
 429.93359375 557.747070312 523.857421875 419.1875 523.858398438 275.34375 c 0
 523.858398438 123.166015625 408.056640625 -14.5361328125 285.41796875 -14.5361328125 c 0
 162.779296875 -14.5361328125 44.88671875 121.155273438 44.9296875 275.34375 c 0
 44.970703125 421.087890625 138.677734375 557.955078125 251.299804688 571.171875 c 1
 251.119140625 751.661132812 l 1
289.513671875 517.576171875 m 0
 188.724609375 517.576171875 125.450195312 421.56640625 125.450195312 275.34375 c 0
 125.450195312 129.12109375 184.627929688 43.3515625 285.41796875 43.3515625 c 0
 386.208007812 43.3515625 445.385742188 131.168945312 445.385742188 277.391601562 c 0
 445.385742188 423.615234375 390.303710938 517.576171875 289.513671875 517.576171875 c 0
EndSplineSet
Validated: 33
EndChar

StartChar: C
Encoding: 67 67 9
Width: 568
Flags: W
HStem: -0.438477 39.6152<135.471 271.114> 512.331 39.6152<135.471 269.394>
VStem: 60.2246 75.2461<39.1768 512.331>
LayerCount: 2
Fore
SplineSet
60.224609375 551.947265625 m 1
 195.948242188 551.946289062 l 2
 613.073242188 551.9453125 624.256835938 -0.44140625 195.948242188 -0.4384765625 c 2
 60.224609375 -0.4384765625 l 1
 60.224609375 551.947265625 l 1
135.470703125 512.331054688 m 1
 135.470703125 39.1767578125 l 1
 172.419921875 39.1767578125 l 2
 512.493164062 39.1767578125 503.646484375 512.331054688 172.419921875 512.331054688 c 2
 135.470703125 512.331054688 l 1
EndSplineSet
Validated: 33
EndChar

StartChar: D
Encoding: 68 68 10
Width: 731
Flags: W
HStem: -0.200195 21G<605.995 670.999>
VStem: 60.3086 65.5537<87.7211 549.589> 328.729 65.5537<128.143 549.534> 605.995 65.0039<-0.200195 51.7012 88.3215 549.191>
LayerCount: 2
Fore
SplineSet
61.509765625 549.9140625 m 1
 127.161132812 549.737304688 l 1
 127.161132812 549.737304688 125.82421875 346.405273438 125.862304688 191.419921875 c 0
 125.900390625 37.1943359375 219.733398438 -13.990234375 335.265625 126.724609375 c 1
 323.923828125 157.3203125 328.728515625 166.233398438 328.728515625 192.49609375 c 0
 328.728515625 477.89453125 329.9296875 549.9140625 329.9296875 549.9140625 c 1
 395.581054688 549.737304688 l 1
 395.581054688 549.737304688 393.02734375 269.4609375 394.282226562 216.374023438 c 0
 398.98046875 17.685546875 525.9296875 17.490234375 605.995117188 107.7734375 c 1
 605.99609375 549.19140625 l 1
 671 549.19140625 l 1
 670.999023438 -0.2001953125 l 1
 605.995117188 -0.2001953125 l 1
 605.995117188 51.701171875 l 1
 553.329101562 -31.8623046875 414.001953125 -39.4736328125 357.58203125 81.1982421875 c 1
 290.061523438 -32.15234375 58.779296875 -81.6494140625 60.30859375 190.447265625 c 0
 61.912109375 475.841796875 61.509765625 549.9140625 61.509765625 549.9140625 c 1
EndSplineSet
Validated: 524321
EndChar

StartChar: E
Encoding: 69 69 11
Width: 533
Flags: W
HStem: -0.200195 21G<405.045 473> 531.157 19.9189G<60.0879 125.504 405.044 473>
VStem: 60.0869 65.417<100.62 550.819> 405.045 67.9551<-0.200195 125.965 137.613 551.076>
LayerCount: 2
Fore
SplineSet
405.044921875 -0.2001953125 m 1
 405.044921875 125.96484375 l 1
 378.504882812 -30.87890625 60.8759765625 -77.93359375 60.0869140625 148.833007812 c 0
 59.96875 182.684570312 60.087890625 551.157226562 60.087890625 551.157226562 c 1
 125.50390625 550.984375 l 1
 125.50390625 550.984375 126.15234375 323.1796875 125.50390625 170.856445312 c 0
 124.75390625 -5.4033203125 375.767578125 41.673828125 405.044921875 187.388671875 c 1
 405.043945312 551.076171875 l 1
 473 551.076171875 l 1
 473 -0.2001953125 l 1
 405.044921875 -0.2001953125 l 1
EndSplineSet
Validated: 33
EndChar

StartChar: G
Encoding: 71 71 12
Width: 549
Flags: W
HStem: -4.28906 61.9746<177.305 377.773> 238.088 69.4463<109.1 441.649> 494.537 62.5908<186.471 362.184>
VStem: 44.9824 63.249<129.546 238.088 307.534 410.984> 441.649 62.3506<307.534 400.502>
LayerCount: 2
Fore
SplineSet
272.682617188 557.127929688 m 0
 488.315429688 557.127929688 504 333.615234375 504 238.087890625 c 1
 108.231445312 238.087890625 l 1
 109.49609375 121.28515625 154.141601562 57.1826171875 276.797851562 57.685546875 c 0
 391.143554688 58.154296875 493.700195312 150.88671875 493.700195312 150.88671875 c 1
 491.749023438 147.013671875 444.745117188 61.5380859375 442.52734375 57.6884765625 c 0
 429.599609375 44.390625 374.8515625 -4.94140625 277.168945312 -4.2890625 c 0
 138.634765625 -3.3642578125 45.732421875 60.3740234375 44.982421875 276.07421875 c 0
 44.982421875 461.26171875 127.221679688 557.127929688 272.682617188 557.127929688 c 0
272.682617188 494.537109375 m 0
 138.314453125 494.537109375 109.099609375 386.571289062 109.099609375 307.534179688 c 1
 441.649414062 307.534179688 l 1
 441.649414062 393.12890625 408.700195312 494.537109375 272.682617188 494.537109375 c 0
174.866210938 -33.9921875 m 1
 179.130859375 -33.9921875 l 1
 194.489257812 -106.694335938 355.944335938 -110.252929688 369.427734375 -33.9921875 c 1
 374.122070312 -33.9921875 l 1
 374.098632812 -190.255859375 173.611328125 -183.270507812 174.866210938 -33.9921875 c 1
EndSplineSet
Validated: 33
EndChar

StartChar: I
Encoding: 73 73 13
Width: 535
Flags: W
HStem: -0.0839844 21G<59.5586 128.179 408.853 475> 531.002 20G<59.5586 128.179>
VStem: 59.5586 68.6201<-0.0839844 426.184 457.353 551.002> 408.853 66.1475<-0.0820312 439.058>
LayerCount: 2
Fore
SplineSet
59.55859375 551.001953125 m 1
 128.178710938 551.001953125 l 1
 128.178710938 457.352539062 l 1
 198.938476562 574.328125 475 629.216796875 475 349.2265625 c 2
 475 -0.083984375 l 1
 408.852539062 -0.08203125 l 1
 408.852539062 363.901367188 l 2
 408.852539062 472.9765625 289.525390625 571.256835938 128.178710938 404.447265625 c 1
 128.178710938 -0.083984375 l 1
 59.55859375 -0.083984375 l 1
 59.55859375 551.001953125 l 1
EndSplineSet
Validated: 33
EndChar

StartChar: J
Encoding: 74 74 14
Width: 533
Flags: W
HStem: 531.157 19.9189G<60.0879 125.504 405.044 473>
VStem: 60.0869 65.417<100.62 550.819> 405.045 67.9551<-183.752 125.965 137.613 551.076>
LayerCount: 2
Fore
SplineSet
405.044921875 -183.751953125 m 1
 405.044921875 125.96484375 l 1
 378.504882812 -30.87890625 60.8759765625 -77.93359375 60.0869140625 148.833007812 c 0
 59.96875 182.684570312 60.087890625 551.157226562 60.087890625 551.157226562 c 1
 125.50390625 550.984375 l 1
 125.50390625 550.984375 126.15234375 323.1796875 125.50390625 170.856445312 c 0
 124.75390625 -5.4033203125 375.767578125 41.673828125 405.044921875 187.388671875 c 1
 405.043945312 551.076171875 l 1
 473 551.076171875 l 1
 473 -183.751953125 l 1
 405.044921875 -183.751953125 l 1
EndSplineSet
Validated: 33
EndChar

StartChar: X
Encoding: 88 88 15
Width: 535
Flags: W
HStem: -167.255 4.98438<236.557 249.687> -0.0839844 21G<59.5557 128.176> 531.002 20G<59.5557 128.176>
VStem: 59.5557 68.6201<-0.0839844 426.184 457.353 551.002> 408.85 66.1475<-35.1876 439.058>
LayerCount: 2
Fore
SplineSet
59.5556640625 551.001953125 m 1
 128.17578125 551.001953125 l 1
 128.17578125 457.352539062 l 1
 198.935546875 574.328125 474.997070312 629.216796875 474.997070312 349.2265625 c 2
 474.997070312 -0.083984375 l 2
 475.616210938 -76.1083984375 377.872070312 -147.578125 294.4765625 -162.270507812 c 2
 236.556640625 -167.254882812 l 1
 304.494140625 -136.333984375 408.849609375 -49.31640625 408.849609375 30.6376953125 c 2
 408.849609375 363.901367188 l 2
 408.849609375 472.9765625 289.522460938 571.256835938 128.17578125 404.447265625 c 1
 128.17578125 -0.083984375 l 1
 59.5556640625 -0.083984375 l 1
 59.5556640625 551.001953125 l 1
EndSplineSet
Validated: 33
EndChar

StartChar: W
Encoding: 87 87 16
Width: 557
Flags: W
HStem: -12.4883 59.9355<201.003 351.991> 503.239 56.8711<201.188 354.471>
VStem: 45.3604 84.6162<158.943 391.21> 427.385 84.6152<159.807 389.672>
LayerCount: 2
Fore
SplineSet
277.657226562 560.110351562 m 0
 399.391601562 560.110351562 512 427.521484375 512 275.34375 c 0
 512.000976562 123.166015625 400.295898438 -12.48828125 277.657226562 -12.48828125 c 0
 155.018554688 -12.48828125 45.3173828125 121.155273438 45.3603515625 275.34375 c 0
 45.4033203125 429.532226562 155.921875 560.110351562 277.657226562 560.110351562 c 0
277.657226562 503.239257812 m 0
 176.8671875 503.239257812 129.9765625 421.56640625 129.9765625 275.34375 c 0
 129.9765625 129.12109375 176.8671875 47.447265625 277.657226562 47.447265625 c 0
 378.446289062 47.447265625 427.384765625 131.168945312 427.384765625 277.391601562 c 0
 427.384765625 423.614257812 378.446289062 503.239257812 277.657226562 503.239257812 c 0
EndSplineSet
Validated: 33
EndChar

StartChar: U
Encoding: 85 85 17
Width: 522
Flags: W
HStem: -2.83301 67.6816<137.116 322.646> 491.346 63.6152<141.741 315.84>
VStem: 393.242 79.5615<154.676 402.387>
LayerCount: 2
Fore
SplineSet
243.737304688 554.9609375 m 0
 410.504882812 554.9609375 472.803710938 401.073242188 472.803710938 275.58984375 c 0
 472.803710938 150.106445312 399.307617188 -3.1025390625 243.737304688 -2.8330078125 c 0
 88.16796875 -2.5634765625 65.6572265625 92.5400390625 52.0400390625 116.286132812 c 1
 137.799804688 61.7724609375 183.458984375 64.8486328125 243.737304688 64.8486328125 c 0
 340.676757812 64.8486328125 393.2421875 131.46484375 393.2421875 275.58984375 c 0
 393.2421875 419.713867188 331.409179688 491.345703125 243.737304688 491.345703125 c 0
 156.06640625 491.345703125 120.688476562 462.431640625 77.65625 429.59765625 c 1
 45 461.271484375 l 1
 59.400390625 477.330078125 129.103515625 554.9609375 243.737304688 554.9609375 c 0
EndSplineSet
Validated: 33
EndChar

StartChar: T
Encoding: 84 84 18
Width: 552
Flags: W
HStem: -0.199219 21G<60.1445 144.403 422.389 492> 531.948 20G<60.1445 131.805 409.689 492>
VStem: 60.1445 71.6602<94.3223 551.946> 422.389 69.6113<-0.199219 461.123>
LayerCount: 2
Fore
SplineSet
422.388671875 551.948242188 m 1
 492 551.936523438 l 1
 492 -0.19921875 l 1
 422.388671875 -0.19921875 l 1
 422.388671875 461.123046875 l 1
 131.8046875 -0.19921875 l 1
 60.14453125 -0.19921875 l 1
 60.14453125 551.946289062 l 1
 131.8046875 551.946289062 l 1
 131.8046875 94.322265625 l 1
 422.388671875 551.948242188 l 1
EndSplineSet
Validated: 1
EndChar

StartChar: K
Encoding: 75 75 19
Width: 549
Flags: W
HStem: -4.28906 61.9746<177.305 377.773> 238.088 69.4463<109.1 441.649> 494.537 62.5908<186.471 362.184>
VStem: 44.9824 63.249<129.546 238.088 307.534 410.984> 441.649 62.3506<307.534 400.502>
LayerCount: 2
Fore
SplineSet
272.682617188 557.127929688 m 0
 488.315429688 557.127929688 504 333.615234375 504 238.087890625 c 1
 108.231445312 238.087890625 l 1
 109.49609375 121.28515625 154.141601562 57.1826171875 276.797851562 57.685546875 c 0
 391.143554688 58.154296875 493.700195312 150.88671875 493.700195312 150.88671875 c 1
 491.749023438 147.013671875 444.745117188 61.5380859375 442.52734375 57.6884765625 c 0
 429.599609375 44.390625 374.8515625 -4.94140625 277.168945312 -4.2890625 c 0
 138.634765625 -3.3642578125 45.732421875 60.3740234375 44.982421875 276.07421875 c 0
 44.982421875 461.26171875 127.221679688 557.127929688 272.682617188 557.127929688 c 0
272.682617188 494.537109375 m 0
 138.314453125 494.537109375 109.099609375 386.571289062 109.099609375 307.534179688 c 1
 441.649414062 307.534179688 l 1
 441.649414062 393.12890625 408.700195312 494.537109375 272.682617188 494.537109375 c 0
EndSplineSet
Validated: 33
EndChar

StartChar: L
Encoding: 76 76 20
Width: 509
Flags: W
HStem: -3.57227 59.834<137.31 373.353> 253.94 43.5059<180.852 246.408> 499.881 53.7441<150.078 352.566>
VStem: 393.686 70.3125<74.77 209.475 340.119 463.474>
LayerCount: 2
Fore
SplineSet
254.599609375 553.625 m 0
 366.083007812 553.625 463.998046875 482.315429688 463.998046875 411.2421875 c 0
 463.998046875 335.423828125 421.94921875 290.3046875 337.765625 275.641601562 c 1
 420.030273438 260.733398438 463.568359375 215.0625 463.998046875 140 c 0
 464.534179688 46.4091796875 365.291992188 -3.572265625 254.223632812 -3.572265625 c 0
 143.155273438 -3.5712890625 111.521484375 35.3583984375 80.2255859375 59.421875 c 1
 44.8720703125 138.4296875 l 1
 44.8720703125 138.4296875 119.3671875 56.25390625 254.58203125 56.26171875 c 0
 389.796875 56.26953125 394.345703125 83.0693359375 393.685546875 140 c 0
 393.028320312 196.731445312 373.15234375 248.368164062 247.706054688 249.868164062 c 2
 180.8515625 253.940429688 l 1
 180.8515625 297.446289062 l 1
 246.408203125 301.54296875 l 2
 381.307617188 310.533203125 394.380859375 354.022460938 393.685546875 411.241210938 c 0
 393.025390625 465.565429688 344.099609375 499.907226562 254.59765625 499.880859375 c 0
 170.390625 499.85546875 114.833007812 468.561523438 90.35546875 421.862304688 c 1
 62.2900390625 476.033203125 l 1
 88.3271484375 497.487304688 143.1171875 553.625 254.599609375 553.625 c 0
EndSplineSet
Validated: 33
EndChar

StartChar: M
Encoding: 77 77 21
Width: 553
Flags: W
HStem: -12.4883 64.0322<200.146 355.107> 505.287 63.0146<200.316 350.951> 695.766 55.8955<180.725 392.199>
VStem: 45.4551 76.4248<159.807 391.773> 410.354 52.9775<609.383 676.123> 431.575 76.4248<159.225 409.467>
LayerCount: 2
Fore
SplineSet
112.153320312 614.185546875 m 1xf8
 76.8603515625 657.208007812 l 1
 107.194335938 704.064453125 203.755859375 751.661132812 277.751953125 751.661132812 c 0
 383.509765625 751.661132812 463.23046875 708.374023438 463.331054688 653.891601562 c 0xf8
 463.423828125 604.520507812 428.075195312 565.327148438 343.131835938 552.970703125 c 1
 450.038085938 530.79296875 507.84765625 409.841796875 508 275.34375 c 0xf4
 508 123.166015625 400.390625 -12.4873046875 277.751953125 -12.48828125 c 0
 155.11328125 -12.4873046875 45.455078125 123.166015625 45.455078125 275.34375 c 0
 45.4560546875 427.521484375 155.11328125 568.301757812 277.751953125 568.301757812 c 0
 324.140625 581.9453125 410.353515625 599.552734375 410.353515625 643.65234375 c 0
 410.353515625 693.733398438 309.548828125 696.115234375 277.751953125 695.765625 c 0
 232.413085938 695.267578125 169.959960938 689.954101562 112.153320312 614.185546875 c 1xf8
277.751953125 505.287109375 m 0
 176.961914062 505.288085938 121.87890625 421.56640625 121.879882812 275.34375 c 0
 121.87890625 129.12109375 176.961914062 51.54296875 277.751953125 51.5439453125 c 0
 378.541015625 51.54296875 431.575195312 129.12109375 431.575195312 275.34375 c 0xf4
 431.575195312 421.56640625 378.541015625 505.288085938 277.751953125 505.287109375 c 0
EndSplineSet
Validated: 33
EndChar

StartChar: N
Encoding: 78 78 22
Width: 685
Flags: W
HStem: -6.34375 51.7441<385.777 507.056> 241.77 65.0986<128.423 255.488> 513.479 43.5508<389.339 507.888>
VStem: 60.3789 68.0439<-0.181641 241.77 306.868 550.868> 255.488 78.2666<114.668 241.77 306.868 434.486> 567.673 72.3271<119.341 424.142>
LayerCount: 2
Fore
SplineSet
448.6640625 557.030273438 m 0
 585.638671875 557.029296875 640 427.521484375 640 275.34375 c 0
 640.000976562 123.166015625 603.060546875 -6.34375 448.6640625 -6.34375 c 0
 310.666015625 -6.34375 259.268554688 96.63671875 255.48828125 241.76953125 c 1
 128.422851562 241.76953125 l 1
 128.422851562 -0.181640625 l 1
 60.37890625 -0.181640625 l 1
 60.37890625 550.868164062 l 1
 128.422851562 550.868164062 l 1
 128.422851562 306.868164062 l 1
 255.48828125 306.868164062 l 1
 259.268554688 452.000976562 313.72265625 557.030273438 448.6640625 557.030273438 c 0
448.6640625 513.479492188 m 0
 359.138671875 513.479492188 333.75390625 421.56640625 333.754882812 275.34375 c 0
 333.75390625 129.12109375 361.186523438 45.3994140625 448.6640625 45.400390625 c 0
 534.094726562 45.3994140625 567.672851562 129.12109375 567.672851562 275.34375 c 0
 567.672851562 421.56640625 534.09375 513.479492188 448.6640625 513.479492188 c 0
EndSplineSet
Validated: 33
EndChar

StartChar: O
Encoding: 79 79 23
Width: 524
Flags: W
HStem: -2.83203 55.3916<138.376 321.694> 249.656 60.416<167.689 397.246> 503.634 51.3281<147.034 319.81>
VStem: 397.928 76.0723<155.357 249.656 310.072 401.847>
LayerCount: 2
Fore
SplineSet
249.029296875 554.961914062 m 0
 415.796875 554.961914062 474 401.073242188 474 275.58984375 c 0
 474 150.106445312 404.599609375 -3.1015625 249.029296875 -2.83203125 c 0
 93.4599609375 -2.5625 70.9482421875 84.3486328125 57.33203125 108.09375 c 1
 143.091796875 53.580078125 188.750976562 52.5595703125 249.029296875 52.5595703125 c 0
 339.984375 52.5595703125 391.8671875 122.033203125 397.927734375 249.65625 c 1
 167.689453125 249.65625 l 1
 167.689453125 310.072265625 l 1
 397.24609375 310.072265625 l 1
 388.086914062 432.985351562 329.447265625 503.633789062 249.029296875 503.633789062 c 0
 161.358398438 503.633789062 125.981445312 470.625 82.94921875 437.790039062 c 1
 50.2919921875 461.272460938 l 1
 64.6923828125 477.331054688 134.395507812 554.961914062 249.029296875 554.961914062 c 0
EndSplineSet
Validated: 33
EndChar

StartChar: P
Encoding: 80 80 24
Width: 537
Flags: W
LayerCount: 2
Fore
SplineSet
428.66015625 560.021484375 m 1
 492 560.008789062 l 1
 311.60546875 271.00390625 l 1
 346.002929688 216.892578125 491.356445312 -7.3681640625 491.356445312 -7.3681640625 c 1
 417.6484375 -7.3681640625 l 1
 417.6484375 -7.3681640625 285.029296875 207.517578125 272.26953125 230.138671875 c 1
 249.840820312 188.823242188 117.595703125 -7.3681640625 117.595703125 -7.3681640625 c 1
 50.6640625 -7.3681640625 l 1
 50.6640625 -7.3681640625 213.255859375 245.89453125 229.46875 272.278320312 c 1
 221.08203125 289.881835938 46.1806640625 560.07421875 45.2919921875 560.07421875 c 1
 120.919921875 560.063476562 l 1
 120.919921875 560.063476562 264.16015625 330.421875 272.311523438 314.275390625 c 1
 290.455078125 346.974609375 428.66015625 560.021484375 428.66015625 560.021484375 c 1
EndSplineSet
Validated: 1
EndChar

StartChar: Z
Encoding: 90 90 25
Width: 552
Flags: W
HStem: -0.199219 21G<60.1445 144.403 422.389 492> 531.948 20G<60.1445 131.805 409.689 492>
VStem: 60.1445 71.6602<94.3223 551.946> 422.389 69.6113<-0.199219 461.123>
LayerCount: 2
Fore
SplineSet
422.388671875 551.948242188 m 1
 492 551.936523438 l 1
 492 -0.19921875 l 1
 422.388671875 -0.19921875 l 1
 422.388671875 461.123046875 l 1
 131.8046875 -0.19921875 l 1
 60.14453125 -0.19921875 l 1
 60.14453125 551.946289062 l 1
 131.8046875 551.946289062 l 1
 131.8046875 94.322265625 l 1
 422.388671875 551.948242188 l 1
176.447265625 -33.9921875 m 1
 180.711914062 -33.9921875 l 1
 196.0703125 -106.694335938 357.525390625 -110.252929688 371.008789062 -33.9921875 c 1
 375.703125 -33.9921875 l 1
 375.6796875 -190.255859375 175.192382812 -183.270507812 176.447265625 -33.9921875 c 1
EndSplineSet
Validated: 33
EndChar

StartChar: S
Encoding: 83 83 26
Width: 568
Flags: W
HStem: -0.438477 39.6152<135.471 271.114> 512.331 39.6152<135.471 269.394>
VStem: 60.2246 75.2461<39.1768 512.331>
LayerCount: 2
Fore
SplineSet
60.224609375 551.947265625 m 5
 195.948242188 551.946289062 l 6
 613.073242188 551.9453125 624.256835938 -0.44140625 195.948242188 -0.4384765625 c 6
 60.224609375 -0.4384765625 l 5
 60.224609375 551.947265625 l 5
135.470703125 512.331054688 m 5
 135.470703125 39.1767578125 l 5
 172.419921875 39.1767578125 l 6
 512.493164062 39.1767578125 503.646484375 512.331054688 172.419921875 512.331054688 c 6
 135.470703125 512.331054688 l 5
186.987304688 -33.9921875 m 5
 191.251953125 -33.9921875 l 5
 206.610351562 -106.694335938 368.065429688 -110.252929688 381.548828125 -33.9921875 c 5
 386.243164062 -33.9921875 l 5
 386.219726562 -190.255859375 185.732421875 -183.270507812 186.987304688 -33.9921875 c 5
EndSplineSet
Validated: 33
EndChar

StartChar: H
Encoding: 72 72 27
Width: 528
Flags: W
HStem: -2.83301 67.6816<199.672 385.202> 491.346 63.6152<206.478 380.577>
VStem: 49.5146 79.5615<154.676 402.387>
LayerCount: 2
Fore
SplineSet
278.580078125 554.9609375 m 0
 393.213867188 554.9609375 462.91796875 477.330078125 477.318359375 461.271484375 c 1
 444.662109375 429.59765625 l 1
 401.629882812 462.431640625 366.251953125 491.345703125 278.580078125 491.345703125 c 0
 190.909179688 491.345703125 129.076171875 419.713867188 129.076171875 275.58984375 c 0
 129.076171875 131.46484375 181.641601562 64.8486328125 278.580078125 64.8486328125 c 0
 338.858398438 64.8486328125 384.518554688 61.7724609375 470.278320312 116.286132812 c 1
 456.661132812 92.5400390625 434.150390625 -2.5634765625 278.580078125 -2.8330078125 c 0
 123.010742188 -3.1025390625 49.5146484375 150.106445312 49.5146484375 275.58984375 c 0
 49.5146484375 401.073242188 111.813476562 554.9609375 278.580078125 554.9609375 c 0
EndSplineSet
Validated: 33
EndChar

StartChar: zero
Encoding: 48 48 28
Width: 413
Flags: W
VStem: 49.5156 313.484
LayerCount: 2
Fore
SplineSet
363 119.323242188 m 1
 281.514648438 108.608398438 l 1
 49.515625 525.623046875 l 1
 127.684570312 499.211914062 l 1
 363 119.323242188 l 1
EndSplineSet
Validated: 1
EndChar

StartChar: one
Encoding: 49 49 29
Width: 297
Flags: W
HStem: 680.277 20G<119.676 147.459>
VStem: 119.676 57.3242<-47.3389 659.013>
LayerCount: 2
Fore
SplineSet
119.67578125 700.27734375 m 1
 177 659.012695312 l 1
 177 -126.15234375 l 1
 119.67578125 -47.3388671875 l 1
 119.67578125 700.27734375 l 1
EndSplineSet
Validated: 1
EndChar

StartChar: two
Encoding: 50 50 30
Width: 425
Flags: W
HStem: 680.277 20G<275.867 303.847>
VStem: 99.9912 51.1807<135.641 563.795> 275.867 49.1328<-47.3389 665.157>
LayerCount: 2
Fore
SplineSet
151.171875 563.794921875 m 1
 151.171875 98.7763671875 l 1
 99.9912109375 135.640625 l 1
 99.9912109375 600.659179688 l 1
 151.171875 563.794921875 l 1
275.8671875 700.27734375 m 1
 325 665.157226562 l 1
 325 -120.0078125 l 1
 275.8671875 -47.3388671875 l 1
 275.8671875 700.27734375 l 1
EndSplineSet
Validated: 1
EndChar

StartChar: three
Encoding: 51 51 31
Width: 537
Flags: W
HStem: 680.278 20G<399.676 427.459>
VStem: 80.4395 55.2764<121.304 545.362> 246.201 51.1807<177.984 496.31> 399.676 57.3242<-47.3379 659.014>
LayerCount: 2
Fore
SplineSet
135.715820312 545.362304688 m 1
 135.715820312 80.34375 l 1
 80.439453125 121.303710938 l 1
 80.439453125 586.322265625 l 1
 135.715820312 545.362304688 l 1
297.381835938 496.309570312 m 1
 297.381835938 145.0859375 l 1
 246.201171875 177.984375 l 1
 246.201171875 529.208007812 l 1
 297.381835938 496.309570312 l 1
399.67578125 -47.337890625 m 1
 399.67578125 700.278320312 l 1
 457 659.013671875 l 1
 457 -126.15234375 l 1
 399.67578125 -47.337890625 l 1
EndSplineSet
Validated: 1
EndChar

StartChar: four
Encoding: 52 52 32
Width: 472
Flags: W
VStem: 375.864 46.1357<488.462 573.251>
LayerCount: 2
Fore
SplineSet
375.864257812 625.456054688 m 1
 422 563.6484375 l 1
 416.262695312 530.37890625 389.125976562 389.397460938 327.30078125 251.971679688 c 1
 394.206054688 148.759765625 l 1
 342.080078125 118.935546875 l 1
 296.98046875 202.591796875 l 1
 245.844726562 103.258789062 164.856445312 17.23046875 50.1220703125 -37.416015625 c 1
 149.5 43.89453125 211.569335938 142.969726562 260.896484375 250.1640625 c 1
 166.880859375 419.154296875 l 1
 227.006835938 399.31640625 l 1
 294.986328125 296.887695312 l 1
 343.006835938 413.234375 364.4375 526.891601562 375.864257812 625.456054688 c 1
EndSplineSet
Validated: 1
EndChar

StartChar: five
Encoding: 53 53 33
Width: 622
Flags: W
HStem: 252.443 163.446
LayerCount: 2
Fore
SplineSet
572 415.889648438 m 1
 509.34765625 347.676757812 l 1
 50.271484375 252.443359375 l 1
 102.454101562 318.46875 l 1
 572 415.889648438 l 1
EndSplineSet
Validated: 1
EndChar

StartChar: six
Encoding: 54 54 34
Width: 607
Flags: W
HStem: -113.864 21G<311.054 325.824> 680.278 20G<276.692 310.604>
VStem: 276.692 49.1318<-47.3379 295.454 359.232 671.302>
LayerCount: 2
Fore
SplineSet
276.692382812 700.278320312 m 1
 325.82421875 671.301757812 l 1
 325.82421875 359.232421875 l 1
 557.001953125 409.74609375 l 1
 508.686523438 343.580078125 l 1
 325.82421875 303.09765625 l 1
 325.82421875 -113.864257812 l 1
 276.692382812 -47.337890625 l 1
 276.692382812 295.454101562 l 1
 49.6103515625 248.34765625 l 1
 87.4560546875 312.326171875 l 1
 276.692382812 351.587890625 l 1
 276.692382812 700.278320312 l 1
EndSplineSet
Validated: 1
EndChar

StartChar: seven
Encoding: 55 55 35
Width: 597
Flags: W
HStem: 680.278 20G<360.02 391.104>
VStem: 184.144 45.0361<135.64 289.5 345.084 576.082> 360.02 47.084<-47.3379 325.984 381.574 671.302>
LayerCount: 2
Fore
SplineSet
360.01953125 700.278320312 m 1
 405.055664062 671.301757812 l 1
 405.055664062 381.57421875 l 1
 552.391601562 413.841796875 l 1
 504.076171875 355.868164062 l 1
 407.103515625 335.67578125 l 1
 407.103515625 -111.81640625 l 1
 360.01953125 -47.337890625 l 1
 360.01953125 325.984375 l 1
 229.1796875 297.143554688 l 1
 229.1796875 111.064453125 l 1
 184.143554688 135.639648438 l 1
 184.143554688 289.5 l 1
 45 260.635742188 l 1
 82.845703125 316.421875 l 1
 184.143554688 337.440429688 l 1
 184.143554688 600.658203125 l 1
 229.1796875 576.08203125 l 1
 229.1796875 345.083984375 l 1
 360.01953125 373.9296875 l 1
 360.01953125 700.278320312 l 1
EndSplineSet
Validated: 1
EndChar

StartChar: eight
Encoding: 56 56 36
Width: 722
Flags: W
HStem: -113.864 21G<522.097 535.021> 680.278 20G<492.032 521.703>
VStem: 172.796 42.9883<121.304 262.572 316.734 561.746> 326.271 47.084<171.84 294.498 348.662 504.502> 492.032 42.9883<-47.3379 326.424 379.738 671.302>
LayerCount: 2
Fore
SplineSet
492.032226562 700.278320312 m 1
 535.020507812 671.301757812 l 1
 535.020507812 379.73828125 l 1
 682 413.055664062 l 1
 636.318359375 356.608398438 l 1
 535.020507812 333.532226562 l 1
 535.020507812 -113.864257812 l 1
 492.032226562 -47.337890625 l 1
 492.032226562 326.423828125 l 1
 373.354492188 302.094726562 l 1
 373.354492188 153.278320312 l 1
 326.270507812 171.83984375 l 1
 326.270507812 294.498046875 l 1
 215.784179688 270.166015625 l 1
 215.784179688 96.7275390625 l 1
 172.795898438 121.303710938 l 1
 172.795898438 262.572265625 l 1
 40.15234375 230.702148438 l 1
 79.396484375 285.288085938 l 1
 172.795898438 307.330078125 l 1
 172.795898438 586.322265625 l 1
 215.784179688 561.74609375 l 1
 215.784179688 316.734375 l 1
 326.270507812 340.704101562 l 1
 326.270507812 523.064453125 l 1
 373.354492188 504.501953125 l 1
 373.354492188 348.662109375 l 1
 492.032226562 372.629882812 l 1
 492.032226562 700.278320312 l 1
EndSplineSet
Validated: 1
EndChar

StartChar: nine
Encoding: 57 57 37
Width: 480
Flags: W
LayerCount: 2
Fore
SplineSet
386.73828125 589.35546875 m 1
 430 553.583984375 l 1
 424.262695312 520.314453125 391.435546875 383.25390625 329.610351562 245.828125 c 1
 392.419921875 146.711914062 l 1
 342.341796875 123.032226562 l 1
 299.290039062 198.49609375 l 1
 248.154296875 99.1630859375 165.118164062 17.2294921875 50.3837890625 -37.416015625 c 1
 149.76171875 43.89453125 215.927734375 147.065429688 265.25390625 254.259765625 c 1
 177.381835938 413.009765625 l 1
 231.364257812 399.31640625 l 1
 297.295898438 288.696289062 l 1
 339.927734375 391.986328125 357.2890625 447.924804688 369.611328125 533.638671875 c 1
 322.734375 521.569335938 159.280273438 484.764648438 62.0498046875 462.631835938 c 1
 117.81640625 526.8359375 l 1
 386.73828125 589.35546875 l 1
EndSplineSet
Validated: 1
EndChar
